<?xml version="1.0" encoding="UTF-8"?>
<svg version="1.1" xmlns="http://www.w3.org/2000/svg" width="258" height="336">
<path d="M0 0 C5.0405308 5.0405308 8.40998429 10.79131553 8.625 18 C8.53504065 24.1802073 6.90737291 28.65983482 2.55859375 33.10546875 C0.24693343 35.1372203 -1.92969504 36.93359752 -4.6875 38.3125 C-4.6875 51.5125 -4.6875 64.7125 -4.6875 78.3125 C1.01789063 78.34988281 6.72328125 78.38726562 12.6015625 78.42578125 C16.22008207 78.45606398 19.83855262 78.4872138 23.45703125 78.52148438 C29.19805412 78.57577504 34.93898005 78.62688643 40.68017578 78.65893555 C45.30985197 78.68498092 49.93920196 78.72539215 54.56867599 78.77568626 C56.33322461 78.79234662 58.09782963 78.80386607 59.86244583 78.81011391 C62.33784273 78.81976412 64.81240667 78.84783367 67.28759766 78.88012695 C68.3773288 78.87797432 68.3773288 78.87797432 69.48907471 78.8757782 C76.31230311 79.0013331 81.46705094 81.59129323 86.3125 86.3125 C91.14672523 93.69320443 92.46185148 99.30245336 92.47363281 108.08496094 C92.47859772 108.97002319 92.48356262 109.85508545 92.48867798 110.76696777 C92.50327668 113.69361145 92.51009821 116.6202009 92.515625 119.546875 C92.52137885 121.58465577 92.52713656 123.62243653 92.53289795 125.66021729 C92.54340177 129.93396252 92.54924832 134.20768898 92.55273438 138.48144531 C92.5582142 143.9466616 92.58223403 149.41162815 92.61070633 154.8767662 C92.62936942 159.08734858 92.63454029 163.29787128 92.63607025 167.50849152 C92.6390896 169.52264011 92.6470938 171.53678784 92.66025543 173.55089569 C92.67739073 176.37494158 92.67541729 179.19838355 92.66894531 182.02246094 C92.6781601 182.8476825 92.68737488 183.67290405 92.6968689 184.52313232 C92.64729159 191.46072721 91.05414692 196.7249103 87.125 202.5625 C81.86880968 207.70188609 77.30681079 209.54456577 70.0625 209.703125 C67.81216568 209.6768053 65.56199081 209.62949514 63.3125 209.5625 C62.15621094 209.54445312 60.99992188 209.52640625 59.80859375 209.5078125 C56.97568725 209.4609876 54.14454116 209.39542012 51.3125 209.3125 C51.33606567 211.11098389 51.33606567 211.11098389 51.36010742 212.94580078 C51.41503966 217.45972789 51.44907668 221.97362646 51.47729492 226.48779297 C51.4922391 228.42925002 51.51260189 230.37067417 51.53881836 232.31201172 C51.82834382 254.32730084 48.89432642 272.49588734 33.3125 289.3125 C32.67054688 290.00859375 32.02859375 290.7046875 31.3671875 291.421875 C24.7650477 297.89849884 16.71140802 301.68731135 8.3125 305.3125 C6.97445312 305.89064453 6.97445312 305.89064453 5.609375 306.48046875 C-9.33752728 311.61545292 -27.36942454 309.1015088 -41.55859375 303.09765625 C-49.47652854 299.2229222 -55.51371305 293.47744198 -61.6875 287.3125 C-62.38101563 286.63058594 -63.07453125 285.94867188 -63.7890625 285.24609375 C-74.81006259 273.61821039 -78.87570632 258.11349857 -78.78515625 242.5390625 C-78.7837413 241.6153183 -78.78232635 240.6915741 -78.78086853 239.73983765 C-78.77529609 236.80569138 -78.76274869 233.87162299 -78.75 230.9375 C-78.74498144 228.94140736 -78.74041915 226.94531351 -78.73632812 224.94921875 C-78.72533569 220.07028275 -78.7080901 215.19140455 -78.6875 210.3125 C-79.40292969 210.30839111 -80.11835937 210.30428223 -80.85546875 210.30004883 C-84.13362125 210.26691744 -87.40996328 210.1962508 -90.6875 210.125 C-91.81285156 210.11919922 -92.93820313 210.11339844 -94.09765625 210.10742188 C-102.59376095 209.88384017 -107.43119911 208.11687705 -113.7109375 202.50390625 C-114.37996094 201.69759766 -114.37996094 201.69759766 -115.0625 200.875 C-115.52398437 200.34003906 -115.98546875 199.80507812 -116.4609375 199.25390625 C-119.93286292 193.75853384 -119.98461298 188.22015488 -119.97802734 181.94580078 C-119.98474457 181.02143219 -119.99146179 180.0970636 -119.99838257 179.14468384 C-120.01732886 176.09900488 -120.02128497 173.05354666 -120.0234375 170.0078125 C-120.02986738 167.88320832 -120.03659588 165.75860502 -120.04360962 163.63400269 C-120.05557368 159.18387805 -120.05929129 154.73383099 -120.05810547 150.28369141 C-120.05790224 144.59199354 -120.08521224 138.90079477 -120.11964989 133.20921516 C-120.14192716 128.82190685 -120.14594276 124.43471854 -120.14488602 120.04735947 C-120.14724041 117.94947463 -120.15605481 115.8515864 -120.17155075 113.75375748 C-120.19122865 110.81481564 -120.18536555 107.87694881 -120.17333984 104.93798828 C-120.18457886 104.07850586 -120.19581787 103.21902344 -120.20739746 102.33349609 C-120.13797037 95.62923932 -118.35614846 90.40502775 -113.94140625 85.2890625 C-113.10416016 84.62003906 -113.10416016 84.62003906 -112.25 83.9375 C-111.41662109 83.24527344 -111.41662109 83.24527344 -110.56640625 82.5390625 C-105.76630511 79.40552454 -101.30028707 79.01005886 -95.68432617 78.99365234 C-94.49817215 78.97858391 -94.49817215 78.97858391 -93.28805542 78.96321106 C-90.68553363 78.93242683 -88.08311449 78.91535726 -85.48046875 78.8984375 C-83.67156596 78.87972201 -81.86267186 78.86014831 -80.05378723 78.8397522 C-75.30112844 78.7884652 -70.54844135 78.74882109 -65.7956543 78.71160889 C-60.08865262 78.66449977 -54.38179096 78.60291661 -48.67490387 78.54376221 C-40.01249254 78.45559177 -31.35010747 78.3857975 -22.6875 78.3125 C-22.3575 64.7825 -22.0275 51.2525 -21.6875 37.3125 C-23.3375 36.6525 -24.9875 35.9925 -26.6875 35.3125 C-32.51275811 30.12930441 -35.57840612 24.86512762 -36.125 17.0625 C-35.95354724 11.41408392 -34.01967161 6.84241072 -30.6875 2.3125 C-21.13238467 -6.08648038 -10.73287116 -6.73924468 0 0 Z " fill="#14B7C7" transform="translate(144.6875,24.6875)"/>
<path d="M0 0 C33.33 0 66.66 0 101 0 C101 54.52483444 101 54.52483444 87.640625 69.67578125 C82.06216008 74.96111028 75.95099186 78.77275378 69 82 C68.319375 82.3403125 67.63875 82.680625 66.9375 83.03125 C55.80018475 87.72980487 41.08026405 85.64996933 30 82 C30 81.34 30 80.68 30 80 C28.97003906 79.773125 27.94007812 79.54625 26.87890625 79.3125 C22.79219362 78.13634925 19.97440077 75.90905229 16.9375 73 C16.15717407 72.26414673 16.15717407 72.26414673 15.36108398 71.51342773 C7.50971796 63.85911561 4.26674777 55.24019464 0 45 C0 30.15 0 15.3 0 0 Z " fill="#FEF1BD" transform="translate(80,233)"/>
<path d="M0 0 C5.0405308 5.0405308 8.40998429 10.79131553 8.625 18 C8.53504065 24.1802073 6.90737291 28.65983482 2.55859375 33.10546875 C0.24693343 35.1372203 -1.92969504 36.93359752 -4.6875 38.3125 C-4.6875 51.5125 -4.6875 64.7125 -4.6875 78.3125 C21.7125 78.6425 48.1125 78.9725 75.3125 79.3125 C75.3125 80.3025 75.3125 81.2925 75.3125 82.3125 C76.6325 82.3125 77.9525 82.3125 79.3125 82.3125 C80.5 84.4375 80.5 84.4375 81.3125 87.3125 C79.9375 90.625 79.9375 90.625 78.3125 93.3125 C77.3225 92.9825 76.3325 92.6525 75.3125 92.3125 C75.3125 92.9725 75.3125 93.6325 75.3125 94.3125 C74.6525 94.3125 73.9925 94.3125 73.3125 94.3125 C73.3125 93.6525 73.3125 92.9925 73.3125 92.3125 C72.590625 92.168125 71.86875 92.02375 71.125 91.875 C69.26587023 91.50317405 67.41130099 91.10768204 65.5625 90.6875 C64.82 90.56375 64.0775 90.44 63.3125 90.3125 C62.9825 90.6425 62.6525 90.9725 62.3125 91.3125 C60.34880847 91.4065067 58.38170801 91.42993381 56.41577148 91.42602539 C55.15453964 91.42594986 53.8933078 91.42587433 52.59385681 91.42579651 C51.20710206 91.4206891 49.82034771 91.41547309 48.43359375 91.41015625 C47.02254791 91.40829201 45.61150143 91.40686814 44.20045471 91.40586853 C40.48009465 91.40204379 36.7597734 91.3922139 33.03942871 91.38116455 C29.24569219 91.37094948 25.45194942 91.36637071 21.65820312 91.36132812 C14.20961769 91.35059158 6.76106428 91.3335157 -0.6875 91.3125 C-0.6875 90.6525 -0.6875 89.9925 -0.6875 89.3125 C-2.6675 89.3125 -4.6475 89.3125 -6.6875 89.3125 C-6.6875 90.6325 -6.6875 91.9525 -6.6875 93.3125 C-7.6775 93.3125 -8.6675 93.3125 -9.6875 93.3125 C-9.6875 102.8825 -9.6875 112.4525 -9.6875 122.3125 C-10.3475 121.6525 -11.0075 120.9925 -11.6875 120.3125 C-12.6775 120.9725 -13.6675 121.6325 -14.6875 122.3125 C-15.0175 121.6525 -15.3475 120.9925 -15.6875 120.3125 C-17.0075 120.6425 -18.3275 120.9725 -19.6875 121.3125 C-19.6875 124.6125 -19.6875 127.9125 -19.6875 131.3125 C-20.0175 131.3125 -20.3475 131.3125 -20.6875 131.3125 C-20.6875 118.4425 -20.6875 105.5725 -20.6875 92.3125 C-35.18862788 92.40317867 -35.18862788 92.40317867 -49.68945312 92.52148438 C-55.60194498 92.57585897 -61.51434097 92.62696664 -67.42700195 92.65893555 C-72.19282224 92.68490534 -76.95832159 92.7252625 -81.72394371 92.77568626 C-83.54400332 92.7923979 -85.36411849 92.80388535 -87.18424416 92.81011391 C-89.72970009 92.8197085 -92.27432694 92.8477109 -94.81958008 92.88012695 C-95.57555481 92.87869186 -96.33152954 92.87725677 -97.1104126 92.8757782 C-101.10449749 92.93544964 -101.10449749 92.93544964 -104.616745 94.65202332 C-107.30476472 98.82047834 -106.84234224 103.30400793 -106.84863281 108.06665039 C-106.85359772 108.96120438 -106.85856262 109.85575836 -106.86367798 110.77742004 C-106.87829143 113.7383399 -106.88509871 116.69920625 -106.890625 119.66015625 C-106.8963752 121.71374005 -106.90213295 123.76732383 -106.90789795 125.82090759 C-106.91840428 130.12580618 -106.92424999 134.4306861 -106.92773438 138.7355957 C-106.93323163 144.26308518 -106.95728742 149.79032987 -106.98570633 155.31774235 C-107.00428516 159.55810785 -107.00953567 163.79841368 -107.01107025 168.03881645 C-107.01410588 170.07746157 -107.02216482 172.11610542 -107.03525543 174.15471077 C-107.05222378 176.99924801 -107.05045891 179.84317748 -107.04394531 182.68774414 C-107.05776749 183.96029053 -107.05776749 183.96029053 -107.0718689 185.25854492 C-107.08893891 187.83307034 -107.08893891 187.83307034 -106.6875 191.3125 C-105.6975 191.9725 -104.7075 192.6325 -103.6875 193.3125 C-103.6875 193.9725 -103.6875 194.6325 -103.6875 195.3125 C-95.4375 195.3125 -87.1875 195.3125 -78.6875 195.3125 C-78.6875 195.6425 -78.6875 195.9725 -78.6875 196.3125 C-79.66360229 196.33437378 -79.66360229 196.33437378 -80.65942383 196.35668945 C-83.60688306 196.43114549 -86.55320642 196.52781266 -89.5 196.625 C-90.52416016 196.64755859 -91.54832031 196.67011719 -92.60351562 196.69335938 C-93.58642578 196.72880859 -94.56933594 196.76425781 -95.58203125 196.80078125 C-96.48800049 196.82696533 -97.39396973 196.85314941 -98.32739258 196.88012695 C-101.07488682 197.38346949 -102.00209442 198.12812796 -103.6875 200.3125 C-103.6875 200.6425 -103.6875 200.9725 -103.6875 201.3125 C-106.8125 202.25 -106.8125 202.25 -110.6875 202.3125 C-113.73802116 199.85588562 -115.94239816 196.80270369 -117.6875 193.3125 C-117.80724933 190.24282822 -117.86593241 187.19519066 -117.88037109 184.12451172 C-117.88854858 183.17146652 -117.89672607 182.21842133 -117.90515137 181.23649597 C-117.93003136 178.07173291 -117.94653048 174.90701487 -117.9609375 171.7421875 C-117.96626118 170.66178318 -117.97158485 169.58137886 -117.97706985 168.46823502 C-118.0038162 162.7467342 -118.02318401 157.02525529 -118.03759766 151.30371094 C-118.05422448 145.39885603 -118.09898203 139.49456152 -118.1499691 133.58991814 C-118.18366372 129.04649226 -118.19517773 124.50319882 -118.20082474 119.95965958 C-118.20753394 117.78359839 -118.22274728 115.60754582 -118.24671555 113.43160629 C-118.27840854 110.37956233 -118.27839695 107.32902146 -118.27099609 104.27685547 C-118.28740143 103.38303665 -118.30380676 102.48921783 -118.32070923 101.5683136 C-118.25883926 95.31244342 -116.67519926 91.16156067 -112.6875 86.3125 C-109.9375 83.9375 -109.9375 83.9375 -107.6875 82.3125 C-107.1925 81.3225 -107.1925 81.3225 -106.6875 80.3125 C-103.05373704 79.10124568 -99.69651987 79.13635607 -95.91137695 79.10717773 C-95.12089966 79.09727814 -94.33042236 79.08737854 -93.51599121 79.07717896 C-90.90261838 79.04558607 -88.28922737 79.02081526 -85.67578125 78.99609375 C-83.86402412 78.97552231 -82.05227177 78.95452579 -80.24052429 78.93312073 C-75.47138336 78.87791965 -70.70219926 78.82850169 -65.9329834 78.78027344 C-60.21104966 78.72121323 -54.48919485 78.65499604 -48.76732635 78.58997345 C-40.0740991 78.49198862 -31.38082127 78.40311568 -22.6875 78.3125 C-22.3575 64.7825 -22.0275 51.2525 -21.6875 37.3125 C-23.3375 36.6525 -24.9875 35.9925 -26.6875 35.3125 C-32.51275811 30.12930441 -35.57840612 24.86512762 -36.125 17.0625 C-35.95354724 11.41408392 -34.01967161 6.84241072 -30.6875 2.3125 C-21.13238467 -6.08648038 -10.73287116 -6.73924468 0 0 Z " fill="#12B6C8" transform="translate(144.6875,24.6875)"/>
<path d="M0 0 C19.80483874 -0.20054405 19.80483874 -0.20054405 28.2421875 -0.24414062 C34.00121062 -0.27403893 39.75983657 -0.30942034 45.51855469 -0.37719727 C50.16105756 -0.43149546 54.8031346 -0.46141592 59.44593048 -0.47438622 C61.21782385 -0.48363008 62.98969371 -0.5016814 64.76140594 -0.52865028 C67.24216703 -0.56491289 69.72116527 -0.56994674 72.20214844 -0.56762695 C73.30266541 -0.59459152 73.30266541 -0.59459152 74.42541504 -0.62210083 C77.92245257 -0.58668208 79.71167851 -0.23258659 82.45898438 1.98364258 C84.54020066 6.05737947 84.53289037 9.3171968 84.45410156 13.8293457 C84.45468567 14.70789719 84.45526978 15.58644867 84.45587158 16.49162292 C84.4530916 19.38674853 84.42200375 22.28083618 84.390625 25.17578125 C84.3831623 27.18645159 84.37746951 29.19712922 84.37347412 31.20780945 C84.35822011 36.49337941 84.31894004 41.77850795 84.2746582 47.06390381 C84.23370064 52.45985951 84.21546205 57.8558867 84.1953125 63.25195312 C84.15244577 73.83482909 84.08419703 84.4173778 84 95 C83.34 95 82.68 95 82 95 C81.71125 95.639375 81.4225 96.27875 81.125 96.9375 C80 99 80 99 78 100 C76.40552536 100.08400529 74.80759455 100.10727467 73.2109375 100.09765625 C72.26992187 100.09443359 71.32890625 100.09121094 70.359375 100.08789062 C69.37453125 100.07951172 68.3896875 100.07113281 67.375 100.0625 C66.38242188 100.05798828 65.38984375 100.05347656 64.3671875 100.04882812 C61.9113984 100.03702145 59.45572896 100.020554 57 100 C56.99857498 99.37883301 56.99714996 98.75766602 56.99568176 98.11767578 C56.97593133 91.62797396 56.92154299 85.13920596 56.84741211 78.64990234 C56.82427502 76.23102528 56.80984653 73.81204809 56.80444336 71.39306641 C56.79512298 67.90724597 56.75406095 64.42299123 56.70703125 60.9375 C56.7109639 59.86322754 56.71489655 58.78895508 56.71894836 57.68212891 C56.58917704 50.94054001 55.69519503 46.04218754 51 41 C45.87192294 36.4488906 40.27914638 36.39936277 33.69140625 36.390625 C32.24132423 36.36582062 32.24132423 36.36582062 30.76194763 36.34051514 C27.69539938 36.29220082 24.62934647 36.27070079 21.5625 36.25 C19.47458468 36.2218265 17.38669226 36.19189715 15.29882812 36.16015625 C10.19899453 36.08316234 5.10070293 36.04248815 0 36 C0 24.12 0 12.24 0 0 Z " fill="#FCF1BD" transform="translate(138,119)"/>
<path d="M0 0 C0.77126221 -0.00043808 1.54252441 -0.00087616 2.3371582 -0.00132751 C4.87501741 0.00075501 7.41220801 0.0240602 9.94995117 0.04760742 C11.71400085 0.05320529 13.47805519 0.05747449 15.24211121 0.06047058 C19.87658652 0.07190431 24.5107781 0.10135877 29.1451416 0.13458252 C34.71016324 0.17072212 40.27527994 0.18445157 45.84038544 0.20194244 C54.28726071 0.23099705 62.73351387 0.28849431 71.18041992 0.34057617 C71.18041992 11.89057617 71.18041992 23.44057617 71.18041992 35.34057617 C64.43738893 36.46441467 64.43738893 36.46441467 61.0144043 36.48242188 C60.25341431 36.48945633 59.49242432 36.49649078 58.70837402 36.5037384 C57.90508667 36.50790268 57.10179932 36.51206696 56.27416992 36.51635742 C54.54368885 36.53954421 52.81322004 36.56366108 51.08276367 36.58862305 C48.37711198 36.62376457 45.67191702 36.65311824 42.96606445 36.66650391 C40.33905182 36.68201306 37.71333745 36.72221874 35.08666992 36.76635742 C33.88173889 36.7634948 33.88173889 36.7634948 32.65246582 36.76057434 C27.38465355 36.87472979 24.24689181 37.70459985 20.18041992 41.34057617 C14.7406454 47.42800414 14.44447019 53.37848047 14.47338867 61.27807617 C14.45826736 62.39875488 14.44314606 63.51943359 14.42756653 64.67407227 C14.38481057 68.2297802 14.37586266 71.78463716 14.36791992 75.34057617 C14.3447664 77.76117152 14.3193993 80.18174677 14.29174805 82.60229492 C14.22901509 88.51506353 14.1939851 94.42750122 14.18041992 100.34057617 C10.43082775 100.48585722 6.68195887 100.57463898 2.93041992 100.65307617 C1.86694336 100.6949707 0.8034668 100.73686523 -0.29223633 100.7800293 C-1.31704102 100.79614258 -2.3418457 100.81225586 -3.39770508 100.82885742 C-4.34033203 100.8550415 -5.28295898 100.88122559 -6.25415039 100.90820312 C-8.81958008 100.34057617 -8.81958008 100.34057617 -11.12510681 98.37039185 C-13.42072566 94.26569329 -13.38910235 91.00537157 -13.35302734 86.37524414 C-13.36164291 85.48200439 -13.37025848 84.58876465 -13.37913513 83.66845703 C-13.40179523 80.72292928 -13.39505793 77.77835255 -13.38598633 74.83276367 C-13.39122069 72.78443112 -13.39749648 70.73610099 -13.4047699 68.68777466 C-13.41517327 64.39891195 -13.41061162 60.11038107 -13.39599609 55.8215332 C-13.37878027 50.31858325 -13.40233865 44.81667467 -13.43748569 39.31384087 C-13.45941308 35.08624317 -13.45803 30.85889667 -13.44972038 26.63125992 C-13.44889885 24.60181661 -13.45580067 22.57235523 -13.47049141 20.54296494 C-13.48785781 17.71035791 -13.47346297 14.87964874 -13.45068359 12.04711914 C-13.46237579 11.20549225 -13.47406799 10.36386536 -13.4861145 9.49673462 C-13.42719692 5.90691181 -13.38562922 3.89893878 -10.76885986 1.31770325 C-7.12338047 0.109918 -3.79568187 -0.05680277 0 0 Z " fill="#FAF1BF" transform="translate(51.819580078125,118.659423828125)"/>
<path d="M0 0 C0.76166977 0.00222061 1.52333954 0.00444122 2.30809021 0.00672913 C3.18098694 0.00684998 4.05388367 0.00697083 4.95323181 0.00709534 C6.33822876 0.01476929 6.33822876 0.01476929 7.75120544 0.02259827 C8.5955011 0.02360535 9.43979675 0.02461243 10.30967712 0.02565002 C13.47639821 0.03089881 16.64310001 0.04485995 19.80979919 0.05775452 C26.88417419 0.07837952 33.95854919 0.09900452 41.24729919 0.12025452 C40.91729919 16.29025452 40.58729919 32.46025452 40.24729919 49.12025452 C34.34132974 49.77647335 28.81642283 50.26147706 22.93089294 50.21791077 C21.81799644 50.21578835 21.81799644 50.21578835 20.68261719 50.21362305 C18.34996734 50.20809686 16.01741924 50.19555916 13.68479919 50.18275452 C12.08779539 50.17772994 10.49079005 50.17316873 8.89378357 50.16908264 C5.01158386 50.15815179 1.12945868 50.14093985 -2.75270081 50.12025452 C-2.77796918 43.16022005 -2.79553303 36.20019732 -2.80763245 29.24012756 C-2.81267422 26.8703314 -2.81950746 24.50053837 -2.82814026 22.13075256 C-2.8402127 18.73271413 -2.84593051 15.33471666 -2.85035706 11.93666077 C-2.85551834 10.87000687 -2.86067963 9.80335297 -2.86599731 8.70437622 C-2.86607285 7.72343491 -2.86614838 6.74249359 -2.8662262 5.73182678 C-2.86844681 4.86356766 -2.87066742 3.99530853 -2.87295532 3.10073853 C-2.71925778 0.56947783 -2.53990908 0.17426565 0 0 Z " fill="#F8F1BF" transform="translate(82.75270080566406,168.87974548339844)"/>
<path d="M0 0 C13.53 0 27.06 0 41 0 C42.18695418 2.37390836 42.12075833 3.80244951 42.11352539 6.44970703 C42.11344986 7.37051056 42.11337433 8.29131409 42.11329651 9.24002075 C42.10813522 10.23589203 42.10297394 11.23176331 42.09765625 12.2578125 C42.0962413 13.27600067 42.09482635 14.29418884 42.09336853 15.3432312 C42.087759 18.60385035 42.07520488 21.86440151 42.0625 25.125 C42.05748623 27.33203026 42.05292311 29.53906159 42.04882812 31.74609375 C42.03778648 37.16408581 42.02103905 42.58203805 42 48 C36.27408399 48.7320884 30.6732347 49.14195381 24.90234375 49.09765625 C23.58484131 49.09515869 22.26733887 49.09266113 20.90991211 49.09008789 C18.44856812 49.07643188 18.44856812 49.07643188 15.9375 49.0625 C10.678125 49.041875 5.41875 49.02125 0 49 C0 32.83 0 16.66 0 0 Z " fill="#FBF1BE" transform="translate(138,170)"/>
<path d="M0 0 C10.36150137 -0.11581292 20.72284896 -0.20467422 31.08486557 -0.25906086 C35.8963277 -0.28516296 40.70734728 -0.32057202 45.51855469 -0.37719727 C50.16105756 -0.43149546 54.8031346 -0.46141592 59.44593048 -0.47438622 C61.21782385 -0.48363008 62.98969371 -0.5016814 64.76140594 -0.52865028 C67.24216703 -0.56491289 69.72116527 -0.56994674 72.20214844 -0.56762695 C73.30266541 -0.59459152 73.30266541 -0.59459152 74.42541504 -0.62210083 C77.92245257 -0.58668208 79.71167851 -0.23258659 82.45898438 1.98364258 C84.54020066 6.05737947 84.53289037 9.3171968 84.45410156 13.8293457 C84.45468567 14.70789719 84.45526978 15.58644867 84.45587158 16.49162292 C84.4530916 19.38674853 84.42200375 22.28083618 84.390625 25.17578125 C84.3831623 27.18645159 84.37746951 29.19712922 84.37347412 31.20780945 C84.35822011 36.49337941 84.31894004 41.77850795 84.2746582 47.06390381 C84.23370064 52.45985951 84.21546205 57.8558867 84.1953125 63.25195312 C84.15244577 73.83482909 84.08419703 84.4173778 84 95 C83.34 95 82.68 95 82 95 C81.505 96.485 81.505 96.485 81 98 C76.545 98.495 76.545 98.495 72 99 C71.99413376 97.97127274 71.98826752 96.94254547 71.98222351 95.88264465 C71.92500139 86.18610953 71.85224239 76.48979878 71.76428509 66.79349232 C71.71956461 61.80855235 71.68031212 56.82369442 71.65356445 51.83862305 C71.6275483 47.02740941 71.58715773 42.21651121 71.53681374 37.40549278 C71.52013362 35.57033907 71.50862647 33.73513079 71.50238609 31.89991188 C71.49275744 29.32852768 71.46471339 26.75795258 71.43237305 24.18676758 C71.43380814 23.42863266 71.43524323 22.67049774 71.4367218 21.88938904 C71.3564863 17.37628696 70.57163871 14.68961277 68 11 C68 10.34 68 9.68 68 9 C45.56 9 23.12 9 0 9 C0 6.03 0 3.06 0 0 Z " fill="#EFD68F" transform="translate(138,119)"/>
<path d="M0 0 C0.77097015 -0.00043808 1.54194031 -0.00087616 2.33627319 -0.00132751 C4.88500276 0.00076279 7.43307479 0.02410471 9.98168945 0.04760742 C11.74859762 0.05320253 13.51551044 0.05747303 15.28242493 0.06047058 C19.93336838 0.07192609 24.58403086 0.1013993 29.23486328 0.13458252 C34.81485437 0.17066313 40.39493939 0.1844412 45.97501373 0.20194244 C54.45269482 0.2310363 62.92975938 0.28851836 71.4074707 0.34057617 C71.4074707 11.89057617 71.4074707 23.44057617 71.4074707 35.34057617 C69.0974707 35.34057617 66.7874707 35.34057617 64.4074707 35.34057617 C64.4074707 26.43057617 64.4074707 17.52057617 64.4074707 8.34057617 C39.3274707 8.34057617 14.2474707 8.34057617 -11.5925293 8.34057617 C-10.5925293 3.34057617 -10.5925293 3.34057617 -9.50456238 1.54936218 C-6.51092476 -0.34321348 -3.42889077 -0.05080682 0 0 Z " fill="#F4D890" transform="translate(51.592529296875,118.659423828125)"/>
<path d="M0 0 C2.97 0 5.94 0 9 0 C9.09946345 6.36795586 9.17174892 12.73545162 9.21972656 19.10400391 C9.2397439 21.26684454 9.2669663 23.42963173 9.30175781 25.59228516 C9.35071247 28.71530406 9.37306817 31.8376026 9.390625 34.9609375 C9.41127014 35.91551849 9.43191528 36.87009949 9.45318604 37.85360718 C9.45619222 47.00975041 6.40441503 54.33127832 1.5 62 C0.64921875 63.36125 0.64921875 63.36125 -0.21875 64.75 C-2.0307257 67.03881141 -3.30834405 67.96111525 -6 69 C-5.42105792 64.48425175 -4.21849943 60.42272338 -2.71875 56.1484375 C-1.44416447 52.33853509 -0.86588283 48.98422864 -0.79467773 44.95605469 C-0.77473251 43.95531921 -0.75478729 42.95458374 -0.73423767 41.92352295 C-0.70916893 40.31395721 -0.70916893 40.31395721 -0.68359375 38.671875 C-0.66281265 37.56773254 -0.64203156 36.46359009 -0.62062073 35.32598877 C-0.55526354 31.80072217 -0.49630436 28.27538141 -0.4375 24.75 C-0.39430164 22.35936735 -0.35068693 19.96874218 -0.30664062 17.578125 C-0.19959628 11.71882827 -0.09780415 5.85945786 0 0 Z " fill="#F7D68C" transform="translate(171,234)"/>
<path d="M0 0 C1.25151326 2.50302652 1.08375047 4.11081202 1.02172852 6.90869141 C0.99158409 8.44005234 0.99158409 8.44005234 0.96083069 10.00234985 C0.92027809 11.66021011 0.92027809 11.66021011 0.87890625 13.3515625 C0.85529526 14.4807309 0.83168427 15.60989929 0.80735779 16.77328491 C0.73059782 20.39064728 0.64662645 24.00780217 0.5625 27.625 C0.50929167 30.07290641 0.4565512 32.52082304 0.40429688 34.96875 C0.27584811 40.97933665 0.13765917 46.9895889 0 53 C-7.59 53 -15.18 53 -23 53 C-23.33 52.34 -23.66 51.68 -24 51 C-19.71 51.33 -15.42 51.66 -11 52 C-11.02094727 50.86046875 -11.04189453 49.7209375 -11.06347656 48.546875 C-11.13626614 44.29033131 -11.18194042 40.03384186 -11.21972656 35.77685547 C-11.23975373 33.93984707 -11.26698382 32.10290171 -11.30175781 30.26611328 C-11.35067065 27.61474998 -11.37305763 24.96423459 -11.390625 22.3125 C-11.41127014 21.50071289 -11.43191528 20.68892578 -11.45318604 19.85253906 C-11.45540715 14.11672586 -10.22274347 9.7886191 -7 5 C-4.71809758 2.88109061 -2.76653461 1.38326731 0 0 Z " fill="#ECD692" transform="translate(66,166)"/>
<path d="M0 0 C2.97 0 5.94 0 9 0 C9 15.84 9 31.68 9 48 C6.03 48 3.06 48 0 48 C0 32.16 0 16.32 0 0 Z " fill="#F3D68E" transform="translate(114,170)"/>
<path d="M0 0 C7 0 7 0 9 1 C9 16.18 9 31.36 9 47 C6.03 47 3.06 47 0 47 C0 31.49 0 15.98 0 0 Z " fill="#F5D68D" transform="translate(171,171)"/>
<path d="M0 0 C0.80037689 -0.00058411 1.60075378 -0.00116821 2.42538452 -0.00177002 C5.06626014 0.00101281 7.7060017 0.03211322 10.34667969 0.06347656 C12.17941674 0.07093827 14.01216178 0.07663153 15.84490967 0.08062744 C20.66526371 0.09588935 25.48513454 0.13517594 30.30529785 0.17944336 C36.09051528 0.22758399 41.87589442 0.24592743 47.66125488 0.26925659 C56.44735741 0.30802667 65.23239999 0.38467628 74.01855469 0.45410156 C74.01855469 13.32410156 74.01855469 26.19410156 74.01855469 39.45410156 C70.9003125 39.47988281 67.78207031 39.50566406 64.56933594 39.53222656 C61.54426096 39.57065574 58.51935594 39.61581324 55.49438477 39.66162109 C53.39453261 39.68982008 51.29457452 39.71103994 49.19458008 39.72509766 C46.1731141 39.7465417 43.15292035 39.79320023 40.13183594 39.84472656 C39.19519608 39.8459552 38.25855621 39.84718384 37.29353333 39.84844971 C31.84320729 39.9705038 29.05769444 40.47589194 25.01855469 44.45410156 C24.02855469 44.78410156 23.03855469 45.11410156 22.01855469 45.45410156 C20.80973372 47.45426623 20.80973372 47.45426623 20.01855469 49.45410156 C19.35855469 49.45410156 18.69855469 49.45410156 18.01855469 49.45410156 C19.45540827 44.42511402 21.96092138 42.49732655 26.01855469 39.45410156 C28.34707421 38.2898418 29.78135653 38.29952164 32.37646484 38.2487793 C33.72763901 38.21886147 33.72763901 38.21886147 35.10610962 38.18833923 C36.08010712 38.17162674 37.05410461 38.15491425 38.05761719 38.13769531 C39.55160538 38.10652367 39.55160538 38.10652367 41.07577515 38.07472229 C44.26496323 38.00921115 47.45423526 37.95033452 50.64355469 37.89160156 C52.80241762 37.84841783 54.96127199 37.8048036 57.12011719 37.76074219 C62.41951147 37.65271607 67.71896726 37.55365416 73.01855469 37.45410156 C73.01855469 25.90410156 73.01855469 14.35410156 73.01855469 2.45410156 C59.07508782 2.57390787 59.07508782 2.57390787 45.13183594 2.71191406 C39.44551056 2.77223715 33.75921927 2.83042231 28.07275391 2.87597656 C23.4885351 2.91283388 18.90450216 2.95919514 14.3204422 3.01216507 C12.57097889 3.03070663 10.82147573 3.04581548 9.07195282 3.05744553 C6.62264446 3.07431207 4.17376156 3.10334787 1.72460938 3.13525391 C0.63811852 3.13849419 0.63811852 3.13849419 -0.47032166 3.14179993 C-4.43646346 3.20786206 -6.31706869 3.62191325 -9.98144531 5.45410156 C-9.98144531 36.47410156 -9.98144531 67.49410156 -9.98144531 99.45410156 C-10.64144531 99.12410156 -11.30144531 98.79410156 -11.98144531 98.45410156 C-12.07406489 86.26717189 -12.14516959 74.08032574 -12.188694 61.893116 C-12.209582 56.23428174 -12.23792214 50.57568801 -12.28320312 44.91699219 C-12.32661708 39.45754375 -12.35057328 33.99832689 -12.36095428 28.53871918 C-12.36835362 26.4542552 -12.38280256 24.36980411 -12.40436554 22.28543854 C-12.43334005 19.3690487 -12.43740377 16.45361964 -12.43554688 13.53710938 C-12.44992798 12.67252106 -12.46430908 11.80793274 -12.47912598 10.91714478 C-12.45398738 7.27605447 -12.35544166 5.07500117 -10.4519043 1.91479492 C-7.0051739 -0.12313254 -3.88842485 -0.07432399 0 0 Z " fill="#73C0AA" transform="translate(49.9814453125,116.5458984375)"/>
<path d="M0 0 C0.93619813 3.15506142 1.1057123 5.96586502 1.0625 9.25 C1.05347656 10.14203125 1.04445313 11.0340625 1.03515625 11.953125 C1.02355469 12.62859375 1.01195313 13.3040625 1 14 C3.64 13.34 6.28 12.68 9 12 C9 12.99 9 13.98 9 15 C9.66 15 10.32 15 11 15 C10.979375 13.741875 10.95875 12.48375 10.9375 11.1875 C10.89113917 8.35948913 11.08307039 6.75078884 12 4 C13.76813112 3.75084061 15.53974982 3.52633368 17.3125 3.3125 C18.29863281 3.18488281 19.28476563 3.05726562 20.30078125 2.92578125 C23 3 23 3 24.8046875 4.30078125 C26.58726585 6.83483871 26.81584307 8.93071784 27 12 C26.0625 14.875 26.0625 14.875 25 17 C24.34 17 23.68 17 23 17 C23 17.66 23 18.32 23 19 C21.7625 18.9175 20.525 18.835 19.25 18.75 C16.1053456 18.75557563 15.19869764 18.86587909 12.5 20.6875 C10.73075292 23.41508925 10.5800638 24.80848491 11 28 C11.33 28.66 11.66 29.32 12 30 C6.37704988 28.63686058 3.27664518 24.48427471 0 20 C-2.76919458 14.34121109 -2.94488628 7.89371423 -1 1.9375 C-0.67 1.298125 -0.34 0.65875 0 0 Z " fill="#25B4C2" transform="translate(111,32)"/>
<path d="M0 0 C1.98 0 3.96 0 6 0 C6 0.66 6 1.32 6 2 C14.12790979 1.89233895 22.25572838 1.77967364 30.38347912 1.66066074 C34.15772355 1.60555169 37.93197588 1.55215136 41.70629883 1.50268555 C45.3503146 1.45486416 48.99424006 1.40251577 52.63814735 1.34705925 C54.02674414 1.32671598 55.41536562 1.30799003 56.80400658 1.29092598 C58.75245274 1.26670363 60.70081693 1.23614106 62.64916992 1.20532227 C63.7572551 1.18977798 64.86534027 1.1742337 66.00700378 1.15821838 C68.98659208 1.08699133 68.98659208 1.08699133 71.77192688 0.36216736 C72.50719101 0.24265213 73.24245514 0.1231369 74 0 C74.99 0.99 74.99 0.99 76 2 C78.06874034 2.6425235 78.06874034 2.6425235 80 3 C80 3.66 80 4.32 80 5 C53.6 5 27.2 5 0 5 C0 16.88 0 28.76 0 41 C14.52 41 29.04 41 44 41 C44 41.33 44 41.66 44 42 C29.15 42 14.3 42 -1 42 C-1.020625 35.8125 -1.04125 29.625 -1.0625 23.25 C-1.071604 21.30254883 -1.08070801 19.35509766 -1.09008789 17.34863281 C-1.09300929 15.80013091 -1.09555732 14.25162824 -1.09765625 12.703125 C-1.1053302 11.50308838 -1.1053302 11.50308838 -1.11315918 10.27880859 C-1.11372336 6.67934686 -0.97340067 3.46305604 0 0 Z " fill="#5CC0B4" transform="translate(138,114)"/>
<path d="M0 0 C0.97238113 0.00707474 1.94476227 0.01414948 2.9466095 0.0214386 C6.05502987 0.04944717 9.16165459 0.1121985 12.26953125 0.17578125 C14.37562504 0.20085572 16.48174705 0.22367037 18.58789062 0.24414062 C23.75329696 0.29929526 28.9173596 0.3856133 34.08203125 0.48828125 C34.08203125 0.81828125 34.08203125 1.14828125 34.08203125 1.48828125 C19.89203125 1.81828125 5.70203125 2.14828125 -8.91796875 2.48828125 C-9.24796875 18.65828125 -9.57796875 34.82828125 -9.91796875 51.48828125 C4.27203125 51.15828125 18.46203125 50.82828125 33.08203125 50.48828125 C33.08203125 34.97828125 33.08203125 19.46828125 33.08203125 3.48828125 C33.41203125 3.48828125 33.74203125 3.48828125 34.08203125 3.48828125 C34.08203125 19.98828125 34.08203125 36.48828125 34.08203125 53.48828125 C18.90203125 53.48828125 3.72203125 53.48828125 -11.91796875 53.48828125 C-13.08955774 51.14510327 -13.05674542 49.72961507 -13.07910156 47.11791992 C-13.08870911 46.21325485 -13.09831665 45.30858978 -13.10821533 44.37651062 C-13.11246521 43.39632462 -13.11671509 42.41613861 -13.12109375 41.40625 C-13.12679382 40.3999202 -13.1324939 39.39359039 -13.1383667 38.35676575 C-13.1478246 36.2241013 -13.15435381 34.09142218 -13.15820312 31.95874023 C-13.16789835 28.69944649 -13.19891034 25.44078599 -13.23046875 22.18164062 C-13.23699976 20.11068083 -13.24224984 18.03971652 -13.24609375 15.96875 C-13.25844055 14.99463669 -13.27078735 14.02052338 -13.2835083 13.01689148 C-13.2710868 9.23335557 -13.06829929 6.0098129 -12.01733398 2.36376953 C-8.49173517 -0.78585835 -4.54999516 -0.12399554 0 0 Z " fill="#4DBDB8" transform="translate(89.91796875,167.51171875)"/>
<path d="M0 0 C1.9375 0.375 1.9375 0.375 4 1 C5.68566814 4.37133628 5.15640245 8.19147722 5.16113281 11.90014648 C5.16858017 13.28324005 5.16858017 13.28324005 5.17617798 14.6942749 C5.19081766 17.75322202 5.19760405 20.81211731 5.203125 23.87109375 C5.20887427 25.99097191 5.21463202 28.11085004 5.22039795 30.23072815 C5.2309126 34.6786422 5.23675246 39.12653815 5.24023438 43.57446289 C5.24572489 49.28236095 5.26976293 54.99002115 5.29820633 60.69784451 C5.31679993 65.07722175 5.32203652 69.45654128 5.32357025 73.83595467 C5.32660393 75.94075892 5.33465638 78.045562 5.34775543 80.15032768 C5.36475 83.09055746 5.36295201 86.03020046 5.35644531 88.97045898 C5.37026749 90.28204735 5.37026749 90.28204735 5.3843689 91.62013245 C5.34297047 97.57125046 5.34297047 97.57125046 3.6362114 99.70488071 C-0.92814994 103.31773441 -8.68606115 102.1834914 -14.25 102.1875 C-15.16007813 102.19974609 -16.07015625 102.21199219 -17.0078125 102.22460938 C-17.87664062 102.22654297 -18.74546875 102.22847656 -19.640625 102.23046875 C-20.42985352 102.23457764 -21.21908203 102.23868652 -22.03222656 102.24291992 C-24 102 -24 102 -26 100 C-26.24050903 97.86129761 -26.24050903 97.86129761 -26.22705078 95.18310547 C-26.22689972 94.18221893 -26.22674866 93.1813324 -26.22659302 92.15011597 C-26.21627045 91.06674957 -26.20594788 89.98338318 -26.1953125 88.8671875 C-26.1924826 87.76021515 -26.18965271 86.6532428 -26.18673706 85.51272583 C-26.17551519 81.96670863 -26.15040691 78.42094125 -26.125 74.875 C-26.1149728 72.47526406 -26.1058465 70.07552417 -26.09765625 67.67578125 C-26.07556932 61.78376849 -26.04207207 55.89190209 -26 50 C-26.66 50 -27.32 50 -28 50 C-30.42857143 43.71428571 -30.42857143 43.71428571 -29 40 C-25.03768249 44.75478101 -22.74187218 47.85817984 -22.77294922 54.13574219 C-22.77310028 55.15649841 -22.77325134 56.17725464 -22.77340698 57.22894287 C-22.78372955 58.32386047 -22.79405212 59.41877808 -22.8046875 60.546875 C-22.80893234 62.23638275 -22.80893234 62.23638275 -22.81326294 63.96002197 C-22.82445626 67.55678946 -22.84955963 71.15330779 -22.875 74.75 C-22.88503088 77.18879849 -22.89415654 79.62760088 -22.90234375 82.06640625 C-22.92439284 88.04435582 -22.95786216 94.02216011 -23 100 C-19.58209801 99.94807797 -16.16671438 99.85299401 -12.75 99.75 C-11.78191406 99.73582031 -10.81382812 99.72164063 -9.81640625 99.70703125 C-4.19656727 99.63519279 -4.19656727 99.63519279 0.546875 96.953125 C1.26617187 95.98632812 1.26617187 95.98632812 2 95 C2.66 95 3.32 95 4 95 C3.93879385 83.35165501 3.861691 71.70353416 3.76428509 60.05543232 C3.71955532 54.64675193 3.68030483 49.23814732 3.65356445 43.8293457 C3.62755766 38.6096623 3.58717358 33.39027011 3.53681374 28.17076683 C3.52012731 26.17930918 3.50862411 24.18780113 3.50238609 22.19628334 C3.49276441 19.40699348 3.46472811 16.61845165 3.43237305 13.8293457 C3.43380814 13.00575562 3.43524323 12.18216553 3.4367218 11.33361816 C3.36093861 6.7149523 2.88675851 3.81804039 0 0 Z " fill="#4DBBB7" transform="translate(218,119)"/>
<path d="M0 0 C33.33 0 66.66 0 101 0 C101 13.53 101 27.06 101 41 C100.67 41 100.34 41 100 41 C100 27.8 100 14.6 100 1 C95.545 1.495 95.545 1.495 91 2 C87.89702086 2.08293933 84.81829089 2.12730626 81.71655273 2.11352539 C80.39784935 2.11374443 80.39784935 2.11374443 79.05250549 2.1139679 C76.17950881 2.11327755 73.30657895 2.10552674 70.43359375 2.09765625 C68.428635 2.09578895 66.4236758 2.09436652 64.41871643 2.09336853 C59.16627725 2.08956796 53.91386615 2.07975891 48.66143799 2.06866455 C43.29187398 2.05839731 37.92230539 2.05385957 32.55273438 2.04882812 C22.03514398 2.03813424 11.51757433 2.02108765 1 2 C1.11793339 7.53604375 1.24215781 13.07189613 1.37231445 18.60766602 C1.41572933 20.49239218 1.45739943 22.37715936 1.49731445 24.26196289 C1.55485893 26.96513249 1.61859804 29.66809436 1.68359375 32.37109375 C1.70030624 33.21900986 1.71701874 34.06692596 1.73423767 34.9405365 C1.46409195 38.78292076 1.46409195 38.78292076 3 42 C3.39666227 44.18019479 3.74315237 46.3696463 4.0625 48.5625 C4.23910156 49.76003906 4.41570312 50.95757812 4.59765625 52.19140625 C4.73042969 53.11824219 4.86320312 54.04507813 5 55 C-6.94784611 40.87981823 0 12.75540143 0 0 Z " fill="#CBEBC7" transform="translate(80,233)"/>
<path d="M0 0 C0.66 0.33 1.32 0.66 2 1 C1.52949219 1.36351563 1.05898438 1.72703125 0.57421875 2.1015625 C-0.04839844 2.60429688 -0.67101563 3.10703125 -1.3125 3.625 C-1.92738281 4.11226563 -2.54226562 4.59953125 -3.17578125 5.1015625 C-8.2609951 10.39366942 -8.43125226 15.78247066 -8.37231445 22.70556641 C-8.37596512 23.66562088 -8.37961578 24.62567535 -8.38337708 25.61482239 C-8.3914604 28.77725094 -8.37789263 31.93916362 -8.36328125 35.1015625 C-8.36276246 37.30300903 -8.36328088 39.50445603 -8.36479187 41.7059021 C-8.36470225 46.31409645 -8.35429215 50.92211547 -8.33618164 55.53027344 C-8.31346832 61.43970893 -8.31295635 67.34888893 -8.31969929 73.25835609 C-8.32303857 77.80162837 -8.31641036 82.34484228 -8.30657005 86.88810349 C-8.30271907 89.06742421 -8.30156942 91.24675143 -8.3031559 93.42607498 C-8.30352629 96.46858376 -8.29091434 99.51076329 -8.2746582 102.55322266 C-8.27713562 103.4551384 -8.27961304 104.35705414 -8.28216553 105.28630066 C-8.27508072 106.11612961 -8.26799591 106.94595856 -8.26069641 107.80093384 C-8.25761711 108.87880378 -8.25761711 108.87880378 -8.25447559 109.97844887 C-7.70352478 114.35519569 -5.44313904 116.77995574 -2.1875 119.5625 C-1.52105469 120.14128906 -0.85460937 120.72007812 -0.16796875 121.31640625 C4.04484817 124.58798119 7.11536544 126.3607644 12.51953125 126.51171875 C13.54111328 126.54716797 14.56269531 126.58261719 15.61523438 126.61914062 C16.67033203 126.64169922 17.72542969 126.66425781 18.8125 126.6875 C19.88693359 126.72166016 20.96136719 126.75582031 22.06835938 126.79101562 C24.71213533 126.87326643 27.35558921 126.94249209 30 127 C30 127.66 30 128.32 30 129 C25.99876194 128.97701992 22.00031861 128.89946345 18 128.8125 C16.87464844 128.80669922 15.74929687 128.80089844 14.58984375 128.79492188 C6.09373905 128.57134017 1.25630089 126.80437705 -5.0234375 121.19140625 C-5.69246094 120.38509766 -5.69246094 120.38509766 -6.375 119.5625 C-7.06722656 118.76005859 -7.06722656 118.76005859 -7.7734375 117.94140625 C-11.24536292 112.44603384 -11.29711298 106.90765488 -11.29052734 100.63330078 C-11.29724457 99.70893219 -11.30396179 98.7845636 -11.31088257 97.83218384 C-11.32982886 94.78650488 -11.33378497 91.74104666 -11.3359375 88.6953125 C-11.34236738 86.57070832 -11.34909588 84.44610502 -11.35610962 82.32150269 C-11.36807368 77.87137805 -11.37179129 73.42133099 -11.37060547 68.97119141 C-11.37040224 63.27949354 -11.39771224 57.58829477 -11.43214989 51.89671516 C-11.45442716 47.50940685 -11.45844276 43.12221854 -11.45738602 38.73485947 C-11.45974041 36.63697463 -11.46855481 34.5390864 -11.48405075 32.44125748 C-11.50372865 29.50231564 -11.49786555 26.56444881 -11.48583984 23.62548828 C-11.49707886 22.76600586 -11.50831787 21.90652344 -11.51989746 21.02099609 C-11.45 14.27131755 -9.69310594 8.93395282 -5.078125 3.90625 C-4.47484375 3.4421875 -3.8715625 2.978125 -3.25 2.5 C-2.63640625 2.0153125 -2.0228125 1.530625 -1.390625 1.03125 C-0.93171875 0.6909375 -0.4728125 0.350625 0 0 Z " fill="#38ADB9" transform="translate(36,106)"/>
<path d="M0 0 C4.76879618 0.42077613 7.87005142 2.50858755 11 6 C15.87794857 13.33653927 17.14938498 19.01492524 17.16113281 27.77246094 C17.16609772 28.65752319 17.17106262 29.54258545 17.17617798 30.45446777 C17.19077668 33.38111145 17.19759821 36.3077009 17.203125 39.234375 C17.20887885 41.27215577 17.21463656 43.30993653 17.22039795 45.34771729 C17.23090177 49.62146252 17.23674832 53.89518898 17.24023438 58.16894531 C17.2457142 63.6341616 17.26973403 69.09912815 17.29820633 74.5642662 C17.31686942 78.77484858 17.32204029 82.98537128 17.32357025 87.19599152 C17.3265896 89.21014011 17.3345938 91.22428784 17.34775543 93.23839569 C17.36489073 96.06244158 17.36291729 98.88588355 17.35644531 101.70996094 C17.3656601 102.5351825 17.37487488 103.36040405 17.3843689 104.21063232 C17.32494743 112.52576932 14.93715961 119.06284039 9 125 C6.1875 126.375 6.1875 126.375 4 127 C4 126.34 4 125.68 4 125 C4.78375 124.773125 5.5675 124.54625 6.375 124.3125 C9.16937405 123.24817375 9.16937405 123.24817375 10.125 120.6875 C10.41375 119.800625 10.7025 118.91375 11 118 C11.50536789 117.30885101 12.01073578 116.61770203 12.53141785 115.90560913 C14.58836217 111.83591769 14.41232765 108.32123314 14.37231445 103.82275391 C14.37596512 102.90667862 14.37961578 101.99060333 14.38337708 101.04676819 C14.39147241 98.02317677 14.3778786 95.00012307 14.36328125 91.9765625 C14.36276243 89.87055461 14.36328097 87.76454623 14.36479187 85.65853882 C14.36470219 81.2452674 14.35428205 76.8321788 14.33618164 72.41894531 C14.31352266 66.77096678 14.31294584 61.12325597 14.31969929 55.47524452 C14.3230467 51.12571854 14.31639414 46.7762532 14.30657005 42.42673874 C14.30272901 40.34479464 14.30156528 38.26284379 14.3031559 36.18089676 C14.30352818 33.26581308 14.29085966 30.35106782 14.2746582 27.43603516 C14.27713562 26.58073715 14.27961304 25.72543915 14.28216553 24.84422302 C14.23808194 19.85557136 13.59823441 15.73249687 12 11 C11.34 11 10.68 11 10 11 C9.67 10.01 9.34 9.02 9 8 C8.34 7.67 7.68 7.34 7 7 C7 6.34 7 5.68 7 5 C6.01 4.67 5.02 4.34 4 4 C4 3.34 4 2.68 4 2 C2.68 2 1.36 2 0 2 C0 1.34 0 0.68 0 0 Z " fill="#43ACB6" transform="translate(220,105)"/>
<path d="M0 0 C0.95018005 0.00359528 1.90036011 0.00719055 2.8793335 0.01089478 C4.37184883 0.01067574 4.37184883 0.01067574 5.89451599 0.01045227 C9.20059348 0.01115186 12.5066154 0.01894637 15.81268311 0.02676392 C18.09811879 0.02862793 20.38355487 0.03005191 22.66899109 0.03105164 C28.69751073 0.03487809 34.72600644 0.04470947 40.7545166 0.05575562 C46.90085527 0.06596699 53.04719778 0.07054867 59.19354248 0.07559204 C71.26321447 0.08633162 83.33286868 0.10340957 95.40252686 0.12442017 C95.40252686 0.45442017 95.40252686 0.78442017 95.40252686 1.12442017 C62.07252686 1.12442017 28.74252686 1.12442017 -5.59747314 1.12442017 C-5.80695121 26.73806111 -5.80695121 26.73806111 -3.59747314 52.12442017 C-3.92747314 51.46442017 -4.25747314 50.80442017 -4.59747314 50.12442017 C-5.25747314 50.12442017 -5.91747314 50.12442017 -6.59747314 50.12442017 C-7.5603207 44.47450338 -7.74346306 39.01344519 -7.73028564 33.28848267 C-7.73124237 32.36852509 -7.7321991 31.4485675 -7.73318481 30.50073242 C-7.73386193 28.56946748 -7.73204053 26.6382002 -7.72784424 24.7069397 C-7.72245236 21.73797587 -7.72782389 18.7691608 -7.73419189 15.80020142 C-7.73353175 13.92129483 -7.73225191 12.04238834 -7.73028564 10.16348267 C-7.73230988 9.2719046 -7.73433411 8.38032654 -7.73641968 7.46173096 C-7.70753484 -0.0358683 -7.47113764 0.01194752 0 0 Z " fill="#6CC6BB" transform="translate(85.59747314453125,231.87557983398438)"/>
<path d="M0 0 C0.66 0 1.32 0 2 0 C0.26548969 4.68317784 -3.59240757 7.79620379 -8 10 C-8 23.2 -8 36.4 -8 50 C31.6 50.495 31.6 50.495 72 51 C72 51.33 72 51.66 72 52 C61.32580302 52.02312328 50.65161194 52.04091501 39.97739506 52.05181217 C35.02146078 52.05704103 30.06554358 52.06413874 25.10961914 52.07543945 C20.33101164 52.08626822 15.55242062 52.09227681 10.7738018 52.09487724 C8.94646381 52.09673151 7.11912676 52.10035216 5.29179573 52.10573006 C2.74146671 52.11294036 0.19120663 52.11399095 -2.35913086 52.11352539 C-3.12229614 52.11712067 -3.88546143 52.12071594 -4.67175293 52.12442017 C-9.88594784 52.11405216 -9.88594784 52.11405216 -11 51 C-11.38993542 45.10751876 -11.48525372 39.21370996 -11.56982422 33.30981445 C-11.60645091 31.32014216 -11.66098884 29.33071476 -11.73388672 27.34204102 C-12.33383761 10.73003678 -12.33383761 10.73003678 -9.02246094 6.43505859 C-6.72150481 4.94335658 -4.53393121 4.0128216 -2 3 C-1.34 2.01 -0.68 1.02 0 0 Z " fill="#48ADBA" transform="translate(148,53)"/>
<path d="M0 0 C2.60443772 1.61654755 2.98719689 2.96319107 4 5.875 C4 9 4 9 2 11.9375 C-1 14 -1 14 -4.625 14.0625 C-8 13 -8 13 -10 11.375 C-11.46635207 7.89241384 -10.99773361 5.59184098 -10 2 C-7.03605831 -0.52483922 -3.76274869 -0.40029241 0 0 Z " fill="#FCF1BF" transform="translate(134,35)"/>
<path d="M0 0 C1.9375 0.375 1.9375 0.375 4 1 C5.68566814 4.37133628 5.15640245 8.19147722 5.16113281 11.90014648 C5.16609772 12.82220886 5.17106262 13.74427124 5.17617798 14.6942749 C5.19081766 17.75322202 5.19760405 20.81211731 5.203125 23.87109375 C5.20887427 25.99097191 5.21463202 28.11085004 5.22039795 30.23072815 C5.2309126 34.6786422 5.23675246 39.12653815 5.24023438 43.57446289 C5.24572489 49.28236095 5.26976293 54.99002115 5.29820633 60.69784451 C5.31679993 65.07722175 5.32203652 69.45654128 5.32357025 73.83595467 C5.32660393 75.94075892 5.33465638 78.045562 5.34775543 80.15032768 C5.36475 83.09055746 5.36295201 86.03020046 5.35644531 88.97045898 C5.3656601 89.84485123 5.37487488 90.71924347 5.3843689 91.62013245 C5.34301987 97.56414911 5.34301987 97.56414911 3.64175034 99.72583103 C1.20577238 101.61640321 -0.71596495 101.33935079 -3.76171875 101.29296875 C-4.87998047 101.28330078 -5.99824219 101.27363281 -7.15039062 101.26367188 C-8.90125977 101.2259668 -8.90125977 101.2259668 -10.6875 101.1875 C-11.86634766 101.17396484 -13.04519531 101.16042969 -14.25976562 101.14648438 C-17.17363411 101.11109326 -20.08658945 101.06171809 -23 101 C-23 100.67 -23 100.34 -23 100 C-22.38479492 99.9906543 -21.76958984 99.98130859 -21.13574219 99.97167969 C-18.33968914 99.91788915 -15.5452938 99.83426181 -12.75 99.75 C-11.78191406 99.73582031 -10.81382812 99.72164063 -9.81640625 99.70703125 C-4.19656727 99.63519279 -4.19656727 99.63519279 0.546875 96.953125 C1.26617187 95.98632812 1.26617187 95.98632812 2 95 C2.66 95 3.32 95 4 95 C3.93879385 83.35165501 3.861691 71.70353416 3.76428509 60.05543232 C3.71955532 54.64675193 3.68030483 49.23814732 3.65356445 43.8293457 C3.62755766 38.6096623 3.58717358 33.39027011 3.53681374 28.17076683 C3.52012731 26.17930918 3.50862411 24.18780113 3.50238609 22.19628334 C3.49276441 19.40699348 3.46472811 16.61845165 3.43237305 13.8293457 C3.43452568 12.59396057 3.43452568 12.59396057 3.4367218 11.33361816 C3.36093861 6.7149523 2.88675851 3.81804039 0 0 Z " fill="#38B2B0" transform="translate(218,119)"/>
<path d="M0 0 C2 2 2 2 2.24050903 3.94888306 C2.23606781 4.743862 2.23162659 5.53884094 2.22705078 6.35791016 C2.22689972 7.25869293 2.22674866 8.15947571 2.22659302 9.08755493 C2.21627045 10.06155243 2.20594788 11.03554993 2.1953125 12.0390625 C2.1924826 13.03505463 2.18965271 14.03104675 2.18673706 15.05722046 C2.1755184 18.24660118 2.15041081 21.43570378 2.125 24.625 C2.11497238 26.78385012 2.10584615 28.94270463 2.09765625 31.1015625 C2.07727289 36.40123571 2.0381273 41.70030557 2 47 C8.93 47 15.86 47 23 47 C22.34 47.66 21.68 48.32 21 49 C14.07 49 7.14 49 0 49 C0 32.83 0 16.66 0 0 Z " fill="#DFF5CD" transform="translate(195,170)"/>
<path d="M0 0 C0.66 0.33 1.32 0.66 2 1 C2.02464638 6.82071622 2.0428343 12.64140234 2.05493164 18.4621582 C2.05997267 20.44393441 2.06680538 22.42570689 2.07543945 24.4074707 C2.08751515 27.24952109 2.09323045 30.09152247 2.09765625 32.93359375 C2.10281754 33.82525742 2.10797882 34.71692108 2.11329651 35.63560486 C2.11349177 37.75740601 2.0621003 39.8791078 2 42 C1.505 42.495 1.505 42.495 1 43 C0.855625 44.0725 0.71125 45.145 0.5625 46.25 C0.07165009 49.52233274 -0.64209722 52.01261388 -2 55 C-2.66 55 -3.32 55 -4 55 C-3.79141357 54.2373584 -3.58282715 53.4747168 -3.36791992 52.68896484 C-0.65461178 41.66068015 -0.44940556 30.92808057 -0.3125 19.625 C-0.27924699 17.71351947 -0.24475029 15.80206016 -0.20898438 13.890625 C-0.1250092 9.26053584 -0.05777735 4.63048712 0 0 Z " fill="#2FB0B1" transform="translate(181,233)"/>
<path d="M0 0 C4.15486354 0.61100934 7.27698149 2.10050076 11 4 C15.88318067 5.84475714 20.74975272 6.77368774 25.875 7.625 C27.050625 7.82609375 27.050625 7.82609375 28.25 8.03125 C30.16595474 8.35836422 32.08288282 8.67976884 34 9 C34 8.34 34 7.68 34 7 C36.64 7 39.28 7 42 7 C42 6.34 42 5.68 42 5 C44.31 5 46.62 5 49 5 C48 7 48 7 44.5625 8.625 C33.25193249 12.16632785 20.04936636 10.63979127 9 7 C9 6.34 9 5.68 9 5 C7.329375 4.5978125 7.329375 4.5978125 5.625 4.1875 C2 3 2 3 0 0 Z " fill="#D2EDCB" transform="translate(101,308)"/>
<path d="M0 0 C0.33 0 0.66 0 1 0 C1.01401855 1.44898682 1.01401855 1.44898682 1.02832031 2.92724609 C1.22438763 32.56368184 1.22438763 32.56368184 9 61 C9.66 61.33 10.32 61.66 11 62 C11.73075648 64.3140622 12.40138258 66.64828869 13 69 C4.96439651 62.45247123 1.35528896 49.93690828 0 40 C-0.13036387 36.88715729 -0.11670633 33.77916809 -0.09765625 30.6640625 C-0.0962413 29.78471039 -0.09482635 28.90535828 -0.09336853 27.99935913 C-0.08779877 25.20787058 -0.0752519 22.41646406 -0.0625 19.625 C-0.05748109 17.72526158 -0.05291887 15.8255219 -0.04882812 13.92578125 C-0.03783925 9.28382286 -0.02059557 4.64192531 0 0 Z " fill="#38ADB9" transform="translate(66,237)"/>
<path d="M0 0 C0.33 0 0.66 0 1 0 C1.01030746 0.56296783 1.02061493 1.12593567 1.03123474 1.70596313 C1.13962659 7.5786626 1.25419679 13.45121874 1.37231445 19.32373047 C1.41555877 21.51380405 1.45724105 23.70390907 1.49731445 25.89404297 C1.55527197 29.04664573 1.61889255 32.19909181 1.68359375 35.3515625 C1.70030624 36.32678864 1.71701874 37.30201477 1.73423767 38.30679321 C1.83523682 42.96805305 2.05676812 47.41475181 3 52 C2.67 51.34 2.34 50.68 2 50 C1.34 50 0.68 50 0 50 C-0.96284756 44.35008321 -1.14598991 38.88902502 -1.1328125 33.1640625 C-1.13376923 32.24410492 -1.13472595 31.32414734 -1.13571167 30.37631226 C-1.13638878 28.44504731 -1.13456738 26.51378003 -1.13037109 24.58251953 C-1.12497922 21.61355571 -1.13035075 18.64474064 -1.13671875 15.67578125 C-1.13605861 13.79687466 -1.13477877 11.91796817 -1.1328125 10.0390625 C-1.13483673 9.14748444 -1.13686096 8.25590637 -1.13894653 7.33731079 C-1.1149747 1.1149747 -1.1149747 1.1149747 0 0 Z " fill="#44BEC1" transform="translate(79,232)"/>
<path d="M0 0 C2.97 0 5.94 0 9 0 C9.09946345 6.36795586 9.17174892 12.73545162 9.21972656 19.10400391 C9.2397439 21.26684454 9.2669663 23.42963173 9.30175781 25.59228516 C9.35071247 28.71530406 9.37306817 31.8376026 9.390625 34.9609375 C9.41127014 35.91551849 9.43191528 36.87009949 9.45318604 37.85360718 C9.45650901 47.97461149 5.61549075 55.76087833 0 64 C-0.33 63.34 -0.66 62.68 -1 62 C-0.06421005 59.64018187 0.93347808 57.30368736 2 55 C2.66 55 3.32 55 4 55 C3.9071875 53.9790625 3.9071875 53.9790625 3.8125 52.9375 C4 50 4 50 5.47973633 46.93334961 C7.48920829 42.38739562 7.47617366 38.0383584 7.51171875 33.12890625 C7.52966995 32.206577 7.54762115 31.28424774 7.56611633 30.33396912 C7.61996736 27.41019152 7.65403385 24.4865748 7.6875 21.5625 C7.72069534 19.57094128 7.75518704 17.57940371 7.79101562 15.58789062 C7.87567926 10.72537697 7.94261026 5.86290893 8 1 C5.36 1 2.72 1 0 1 C0 0.67 0 0.34 0 0 Z " fill="#DDDB9E" transform="translate(171,234)"/>
<path d="M0 0 C0.99 0.33 1.98 0.66 3 1 C0.93950145 1.81756238 -1.12348853 2.62884734 -3.1875 3.4375 C-4.33605469 3.88996094 -5.48460937 4.34242188 -6.66796875 4.80859375 C-13.09915103 7.10813724 -19.05156448 7.18301365 -25.8125 7.1875 C-26.77220703 7.19974609 -27.73191406 7.21199219 -28.72070312 7.22460938 C-34.50599537 7.23645639 -39.45400571 6.66051663 -45 5 C-45 4.67 -45 4.34 -45 4 C-44.23034912 4.01571045 -43.46069824 4.0314209 -42.66772461 4.04760742 C-20.85795469 5.3017678 -20.85795469 5.3017678 0 0 Z " fill="#39AEBC" transform="translate(157,326)"/>
<path d="M0 0 C3.3413456 2.30181586 5.72462064 4.64680937 8 8 C7.67 8.66 7.34 9.32 7 10 C6.278125 9.2575 5.55625 8.515 4.8125 7.75 C0.10393788 2.80964195 0.10393788 2.80964195 -6.0859375 0.5390625 C-12.08756134 0.69587452 -17.3407077 0.95302193 -23 3 C-24.33130115 3.34135927 -25.66358148 3.67925956 -27 4 C-19.98365275 -4.47808626 -9.33041153 -4.61609834 0 0 Z " fill="#3EAEB9" transform="translate(142,23)"/>
<path d="M0 0 C1.38120529 0.0001133 1.38120529 0.0001133 2.79031372 0.00022888 C4.28412064 0.00797081 4.28412064 0.00797081 5.80810547 0.01586914 C7.33538773 0.01799156 7.33538773 0.01799156 8.89352417 0.02015686 C12.15414332 0.02576639 15.41469448 0.03832051 18.67529297 0.05102539 C20.88232323 0.05603916 23.08935456 0.06060228 25.29638672 0.06469727 C30.71437877 0.07573891 36.13233101 0.09248634 41.55029297 0.11352539 C41.55029297 0.44352539 41.55029297 0.77352539 41.55029297 1.11352539 C40.24358643 1.12287109 38.93687988 1.1322168 37.59057617 1.1418457 C32.73541363 1.18176377 27.88088353 1.24752814 23.02612305 1.32104492 C20.92627089 1.34924391 18.8263128 1.37046376 16.72631836 1.38452148 C13.70485238 1.40596553 10.68465863 1.45262406 7.66357422 1.50415039 C6.72693436 1.50537903 5.79029449 1.50660767 4.82527161 1.50787354 C-0.62505442 1.62992763 -3.41056728 2.13531577 -7.44970703 6.11352539 C-8.43970703 6.44352539 -9.42970703 6.77352539 -10.44970703 7.11352539 C-11.658528 9.11369005 -11.658528 9.11369005 -12.44970703 11.11352539 C-13.10970703 11.11352539 -13.76970703 11.11352539 -14.44970703 11.11352539 C-13.01285345 6.08453785 -10.50734034 4.15675037 -6.44970703 1.11352539 C-4.07579867 -0.07342879 -2.64725752 -0.00723294 0 0 Z " fill="#6EC7B6" transform="translate(82.44970703125,154.886474609375)"/>
<path d="M0 0 C0.66 0 1.32 0 2 0 C2.25136719 0.58652344 2.50273437 1.17304688 2.76171875 1.77734375 C4.15468005 4.27764337 5.64222406 5.70759876 7.8125 7.5625 C8.47894531 8.14128906 9.14539063 8.72007812 9.83203125 9.31640625 C14.04484817 12.58798119 17.11536544 14.3607644 22.51953125 14.51171875 C23.54111328 14.54716797 24.56269531 14.58261719 25.61523438 14.61914062 C27.19788086 14.65297852 27.19788086 14.65297852 28.8125 14.6875 C29.88693359 14.72166016 30.96136719 14.75582031 32.06835938 14.79101562 C34.71213533 14.87326643 37.35558921 14.94249209 40 15 C40 15.66 40 16.32 40 17 C35.99876194 16.97701992 32.00031861 16.89946345 28 16.8125 C26.87464844 16.80669922 25.74929687 16.80089844 24.58984375 16.79492188 C16.07802809 16.57092673 11.18527599 14.81995778 4.94140625 9.12109375 C4.48636719 8.56550781 4.03132813 8.00992188 3.5625 7.4375 C2.85287109 6.60025391 2.85287109 6.60025391 2.12890625 5.74609375 C0.89791109 3.84209778 0.42172701 2.21527864 0 0 Z " fill="#3CAEB9" transform="translate(26,218)"/>
<path d="M0 0 C2.60443772 1.61654755 2.98719689 2.96319107 4 5.875 C4 9 4 9 2 11.9375 C-1 14 -1 14 -4.625 14.0625 C-8 13 -8 13 -10 11.375 C-11.46635207 7.89241384 -10.99773361 5.59184098 -10 2 C-7.03605831 -0.52483922 -3.76274869 -0.40029241 0 0 Z M-9 3 C-9.23428313 7.7897321 -9.23428313 7.7897321 -7 12 C-3.91634129 12.2502157 -3.91634129 12.2502157 -1 12 C-1 11.34 -1 10.68 -1 10 C-0.01 10 0.98 10 2 10 C2 7.69 2 5.38 2 3 C0.741875 2.814375 -0.51625 2.62875 -1.8125 2.4375 C-2.52019531 2.33308594 -3.22789062 2.22867188 -3.95703125 2.12109375 C-6.2025342 1.86095201 -6.2025342 1.86095201 -9 3 Z " fill="#C7EECD" transform="translate(134,35)"/>
<path d="M0 0 C0.66 0 1.32 0 2 0 C0.43795274 4.21752761 -2.45134252 6.37399346 -6 9 C-7.32 9.33 -8.64 9.66 -10 10 C-10 23.53 -10 37.06 -10 51 C-10.33 51 -10.66 51 -11 51 C-11.22300529 45.12867095 -11.3860246 39.25981949 -11.49438477 33.38525391 C-11.53956174 31.38872331 -11.60092086 29.39248914 -11.67895508 27.39697266 C-12.31492069 10.71222783 -12.31492069 10.71222783 -9.02685547 6.43066406 C-6.72408712 4.93854769 -4.53674502 4.01030788 -2 3 C-1.34 2.01 -0.68 1.02 0 0 Z " fill="#25AFBF" transform="translate(148,53)"/>
<path d="M0 0 C0 0.66 0 1.32 0 2 C-0.99 2 -1.98 2 -3 2 C-3.33 2.99 -3.66 3.98 -4 5 C-12.02062422 8.41333045 -21.41876502 8.91013098 -30 8 C-30.66 7.34 -31.32 6.68 -32 6 C-30.81664063 5.97421875 -29.63328125 5.9484375 -28.4140625 5.921875 C-19.59940721 5.63849353 -11.94049581 5.25383704 -4 1 C-2 0 -2 0 0 0 Z " fill="#34BABE" transform="translate(154,312)"/>
<path d="M0 0 C0.33 0 0.66 0 1 0 C1.02505615 1.20648193 1.0501123 2.41296387 1.07592773 3.65600586 C1.16982523 8.11575661 1.27008833 12.57534513 1.37231445 17.03491211 C1.41573041 18.96814185 1.45740042 20.90141159 1.49731445 22.8347168 C1.55485631 25.60738202 1.6185962 28.37984457 1.68359375 31.15234375 C1.70030624 32.02213364 1.71701874 32.89192352 1.73423767 33.78807068 C1.45026213 37.71115966 1.45026213 37.71115966 3 41 C3.39666227 43.18019479 3.74315237 45.3696463 4.0625 47.5625 C4.23910156 48.76003906 4.41570312 49.95757812 4.59765625 51.19140625 C4.73042969 52.11824219 4.86320312 53.04507813 5 54 C-0.22246282 47.82799848 -0.28072607 41.49653301 -0.1953125 33.7890625 C-0.1924826 32.82092621 -0.18965271 31.85278992 -0.18673706 30.85531616 C-0.17558696 27.77841572 -0.1504918 24.70181172 -0.125 21.625 C-0.11496352 19.5325563 -0.10583884 17.44010802 -0.09765625 15.34765625 C-0.07566453 10.23165749 -0.04117025 5.11587892 0 0 Z " fill="#D4F1CF" transform="translate(80,234)"/>
<path d="M0 0 C1.32 0.66 2.64 1.32 4 2 C1.84682713 11.33041575 1.84682713 11.33041575 -1.6875 14.125 C-2.450625 14.41375 -3.21375 14.7025 -4 15 C-3.32584613 9.7415998 -1.75734451 4.97361654 0 0 Z " fill="#E7D794" transform="translate(169,288)"/>
<path d="M0 0 C4.76977378 0.42086239 7.86906179 2.50937176 11 6 C12.93978999 8.87247673 14.72463758 11.77035088 16 15 C15.67 15.66 15.34 16.32 15 17 C14.67 15.68 14.34 14.36 14 13 C13.34 13 12.68 13 12 13 C12 12.34 12 11.68 12 11 C11.34 11 10.68 11 10 11 C9.67 10.01 9.34 9.02 9 8 C8.34 7.67 7.68 7.34 7 7 C7 6.34 7 5.68 7 5 C6.01 4.67 5.02 4.34 4 4 C4 3.34 4 2.68 4 2 C2.68 2 1.36 2 0 2 C0 1.34 0 0.68 0 0 Z " fill="#40ADB7" transform="translate(220,105)"/>
<path d="M0 0 C0.33 0 0.66 0 1 0 C1.65769403 6.90578728 0.71188235 10.40598396 -3.296875 16.0546875 C-5.05475834 18.06254508 -6.76046401 19.55249503 -9 21 C-9.66 21 -10.32 21 -11 21 C-11 20.34 -11 19.68 -11 19 C-10.21625 18.773125 -9.4325 18.54625 -8.625 18.3125 C-5.83062595 17.24817375 -5.83062595 17.24817375 -4.875 14.6875 C-4.441875 13.3571875 -4.441875 13.3571875 -4 12 C-3.484375 11.21625 -2.96875 10.4325 -2.4375 9.625 C-0.68594884 6.42651527 -0.35324922 3.60314201 0 0 Z " fill="#3CADBA" transform="translate(235,211)"/>
<path d="M0 0 C0.66 0 1.32 0 2 0 C0.77856859 8.14287603 -2.62464494 14.0860031 -7 21 C-7.33 20.34 -7.66 19.68 -8 19 C-7.06421005 16.64018187 -6.06652192 14.30368736 -5 12 C-4.34 12 -3.68 12 -3 12 C-3.061875 11.319375 -3.12375 10.63875 -3.1875 9.9375 C-2.94131737 6.08063875 -1.64197838 3.48920406 0 0 Z " fill="#C3D5A4" transform="translate(178,277)"/>
<path d="M0 0 C1.0209375 0.6496875 1.0209375 0.6496875 2.0625 1.3125 C5.3046978 3.17503916 8.54486289 4.57729648 12 6 C12 6.66 12 7.32 12 8 C13.85625 8.185625 13.85625 8.185625 15.75 8.375 C18.92393362 8.69239336 21.20625977 9.4521169 24 11 C22.3954444 10.85851011 20.79136233 10.71164314 19.1875 10.5625 C18.29417969 10.48128906 17.40085937 10.40007812 16.48046875 10.31640625 C14 10 14 10 11 9 C11 8.34 11 7.68 11 7 C10.0925 6.87625 9.185 6.7525 8.25 6.625 C5.36320708 6.06984752 3.3874628 5.68006642 1 4 C0.25 1.875 0.25 1.875 0 0 Z " fill="#4CBEBD" transform="translate(98,307)"/>
<path d="M0 0 C0.99 0 1.98 0 3 0 C3 0.66 3 1.32 3 2 C3.763125 1.938125 4.52625 1.87625 5.3125 1.8125 C8.59181952 2.04128973 8.78605495 2.74264427 11 5 C13.03232242 6.19599068 13.03232242 6.19599068 15.1875 7.1875 C15.90292969 7.53167969 16.61835937 7.87585938 17.35546875 8.23046875 C18.16951172 8.61138672 18.16951172 8.61138672 19 9 C15.36682438 10.21105854 14.17056573 9.3974399 10.85742188 7.74609375 C10.22384766 7.41738281 9.59027344 7.08867187 8.9375 6.75 C7.98133789 6.28013672 7.98133789 6.28013672 7.00585938 5.80078125 C3.73499938 4.13950147 2.07250703 3.10876054 0 0 Z " fill="#41AEB4" transform="translate(93,320)"/>
<path d="M0 0 C0.66 0.33 1.32 0.66 2 1 C-2.20788009 6.75545909 -6.41509524 11.55487173 -12 16 C-12 15.01 -12 14.02 -12 13 C-11.34 13 -10.68 13 -10 13 C-10 12.34 -10 11.68 -10 11 C-7.625 8.375 -7.625 8.375 -5 6 C-4.34 6 -3.68 6 -3 6 C-2.690625 5.38125 -2.38125 4.7625 -2.0625 4.125 C-1.375 2.75 -0.6875 1.375 0 0 Z " fill="#41AFB9" transform="translate(183,304)"/>
<path d="M0 0 C0 0.66 0 1.32 0 2 C-0.99 2 -1.98 2 -3 2 C-3.33 2.99 -3.66 3.98 -4 5 C-7.21451269 6.60725635 -10.43612536 6.05748185 -14 6 C-13 4 -13 4 -11.00390625 3.18359375 C-10.19824219 2.93738281 -9.39257812 2.69117188 -8.5625 2.4375 C-0.69430052 0 -0.69430052 0 0 0 Z " fill="#51C3BE" transform="translate(154,312)"/>
<path d="M0 0 C0 4.16415371 -1.78628982 6.09517984 -4.265625 9.32421875 C-6 11 -6 11 -9.375 11.5 C-10.24125 11.335 -11.1075 11.17 -12 11 C-9.72403696 8.66678003 -7.33714502 6.5100704 -4.875 4.375 C-2.38509932 2.24398756 -2.38509932 2.24398756 0 0 Z " fill="#4DBBB5" transform="translate(167,301)"/>
<path d="M0 0 C4.0042343 3.49087093 5.62671065 5.64951939 6 11 C4.125 10.875 4.125 10.875 2 10 C0.40155515 6.40349908 0 3.96602757 0 0 Z " fill="#41BEC1" transform="translate(188,159)"/>
<path d="M0 0 C0.66 0 1.32 0 2 0 C2.3125 2.75 2.3125 2.75 2 6 C-0.5 8.375 -0.5 8.375 -3 10 C-2.25 2.25 -2.25 2.25 0 0 Z " fill="#1EB3C0" transform="translate(114,28)"/>
<path d="M0 0 C1.0326802 2.78823655 1.04509293 3.8677274 0.0625 6.75 C-0.288125 7.4925 -0.63875 8.235 -1 9 C-1.66 9 -2.32 9 -3 9 C-3 9.99 -3 10.98 -3 12 C-3.99 12 -4.98 12 -6 12 C-4.43358249 7.69235185 -2.31663844 3.93828536 0 0 Z " fill="#3EB6B5" transform="translate(176,288)"/>
<path d="M0 0 C0.66 0 1.32 0 2 0 C0.43525633 4.22480792 -2.45364158 6.35761529 -6 9 C-8.875 10.3125 -8.875 10.3125 -11 11 C-9.8271573 7.48147191 -9.16913123 7.25274673 -6.0625 5.5 C-3.03307774 3.78461026 -2.00510078 3.00765117 0 0 Z " fill="#3AADB9" transform="translate(148,53)"/>
<path d="M0 0 C4.12751449 0.60698743 7.3321148 2.03810791 11 4 C11 4.66 11 5.32 11 6 C11.66 6.33 12.32 6.66 13 7 C11.68 7 10.36 7 9 7 C9 6.34 9 5.68 9 5 C7.329375 4.5978125 7.329375 4.5978125 5.625 4.1875 C2 3 2 3 0 0 Z " fill="#C3E8CC" transform="translate(101,308)"/>
<path d="M0 0 C0 3.80345877 -1.13786331 4.77701015 -3.5 7.6875 C-4.47453125 8.89986328 -4.47453125 8.89986328 -5.46875 10.13671875 C-5.9740625 10.75160156 -6.479375 11.36648437 -7 12 C-7.33 11.01 -7.66 10.02 -8 9 C-5.84140076 5.16249025 -3.71404629 2.38760119 0 0 Z " fill="#F5DA98" transform="translate(64,167)"/>
<path d="M0 0 C1 3 1 3 -0.21484375 5.69921875 C-0.78332031 6.68535156 -1.35179687 7.67148437 -1.9375 8.6875 C-2.50339844 9.68136719 -3.06929687 10.67523438 -3.65234375 11.69921875 C-4.31943359 12.83810547 -4.31943359 12.83810547 -5 14 C-5.68359375 12.328125 -5.68359375 12.328125 -6 10 C-4.78515625 7.421875 -4.78515625 7.421875 -3.0625 4.75 C-2.49660156 3.85796875 -1.93070313 2.9659375 -1.34765625 2.046875 C-0.90292969 1.37140625 -0.45820313 0.6959375 0 0 Z " fill="#3DAEB7" transform="translate(191,290)"/>
<path d="M0 0 C0.5775 0.2475 1.155 0.495 1.75 0.75 C-0.30233685 2.9977975 -1.25667261 3.7522242 -4.25 4.75 C-5.45882096 6.75016466 -5.45882096 6.75016466 -6.25 8.75 C-6.91 8.75 -7.57 8.75 -8.25 8.75 C-6.88064896 4.64194688 -5.04707216 -0.5607858 0 0 Z " fill="#3CBAB7" transform="translate(76.25,157.25)"/>
<path d="M0 0 C0.99 0.33 1.98 0.66 3 1 C-0.45856848 3.94995547 -3.80021485 6.22675738 -8 8 C-8.66 7.67 -9.32 7.34 -10 7 C-9.195625 6.54625 -8.39125 6.0925 -7.5625 5.625 C-4.91143428 4.25274335 -4.91143428 4.25274335 -4 2 C-2.68 2 -1.36 2 0 2 C0 1.34 0 0.68 0 0 Z " fill="#D1EDCA" transform="translate(160,305)"/>
<path d="M0 0 C0.33 0 0.66 0 1 0 C1.3690205 9.41002278 1.3690205 9.41002278 -1 14 C-1.66 14 -2.32 14 -3 14 C-2.01 9.38 -1.02 4.76 0 0 Z " fill="#3CB7AE" transform="translate(180,274)"/>
<path d="M0 0 C0.66 0.33 1.32 0.66 2 1 C2 1.66 2 2.32 2 3 C-1.3 3 -4.6 3 -8 3 C-8 2.34 -8 1.68 -8 1 C-5.26094655 -0.36952673 -3.02912668 -0.12621361 0 0 Z " fill="#D8F4D0" transform="translate(134,35)"/>
<path d="M0 0 C0.66 0 1.32 0 2 0 C1.43628586 3.26954202 0.50037734 4.82575883 -2 7 C-2.99 6.67 -3.98 6.34 -5 6 C-3.38405168 3.95880212 -1.7143618 1.95927063 0 0 Z " fill="#1CB4BD" transform="translate(169,300)"/>
<path d="M0 0 C4.875 4.75 4.875 4.75 6 7 C4.35 7 2.7 7 1 7 C0.67 4.69 0.34 2.38 0 0 Z " fill="#38BBC0" transform="translate(88,296)"/>
<path d="M0 0 C2.15377564 2.62198774 3.40072174 4.64404172 4 8 C2.68 7.67 1.36 7.34 0 7 C0 4.69 0 2.38 0 0 Z " fill="#4AC2B9" transform="translate(84,288)"/>
<path d="M0 0 C0.99 0 1.98 0 3 0 C2.75 1.875 2.75 1.875 2 4 C-0.0625 5.25 -0.0625 5.25 -2 6 C-1.49396008 3.83125748 -1.00016187 2.00032373 0 0 Z " fill="#32B7BA" transform="translate(220,214)"/>
<path d="M0 0 C0.99 0 1.98 0 3 0 C3 0.99 3 1.98 3 3 C3.99 3 4.98 3 6 3 C5.67 4.32 5.34 5.64 5 7 C3.29115995 5.37660195 1.62553283 3.70680947 0 2 C0 1.34 0 0.68 0 0 Z " fill="#D5F0C8" transform="translate(90,297)"/>
<path d="M0 0 C0.33 0 0.66 0 1 0 C3.27678571 8.03571429 3.27678571 8.03571429 2 12 C2 11.34 2 10.68 2 10 C1.34 10 0.68 10 0 10 C0 6.7 0 3.4 0 0 Z " fill="#3CBABA" transform="translate(79,272)"/>
</svg>
